<mxfile host="app.diagrams.net" modified="2023-07-02T10:43:35.461Z" agent="Mozilla/5.0 (Macintosh; Intel Mac OS X 10_15_7) AppleWebKit/537.36 (KHTML, like Gecko) Chrome/114.0.0.0 Safari/537.36" version="21.5.2" etag="tiJzgv1g8lLbc6O2uvBX" type="github">
  <diagram name="Сторінка-1" id="t7edvL2MK0KQswxWXAqZ">
    <mxGraphModel>
      <root>
        <mxCell id="0" />
        <mxCell id="1" parent="0" />
      </root>
    </mxGraphModel>
  </diagram>
</mxfile>
